<svg xmlns="http://www.w3.org/2000/svg" xmlns:xlink="http://www.w3.org/1999/xlink" viewBox="0 0 63.44 63.44"><defs><style>.cls-1{fill:none;}.cls-2{clip-path:url(#clip-path);}.cls-3{fill:#1559b7;}</style><clipPath id="clip-path" transform="translate(1.51 1.51)"><circle id="SVGID" class="cls-1" cx="30.21" cy="30.21" r="30.21"/></clipPath></defs><g id="Layer_2" data-name="Layer 2"><g id="Layer_1-2" data-name="Layer 1"><g class="cls-2"><path class="cls-3" d="M30.21,1.51a28.7,28.7,0,0,1,28.7,28.7h3A31.72,31.72,0,0,0,30.21-1.51ZM1.51,30.21a28.7,28.7,0,0,1,28.7-28.7v-3A31.72,31.72,0,0,0-1.51,30.21Zm28.7,28.7a28.7,28.7,0,0,1-28.7-28.7h-3A31.72,31.72,0,0,0,30.21,61.93Zm28.7-28.7a28.7,28.7,0,0,1-28.7,28.7v3A31.72,31.72,0,0,0,61.93,30.21Z" transform="translate(1.51 1.51)"/></g><path class="cls-3" d="M33.23,32.47H37l1.52-6H33.23v-3c0-1.55,0-3,3-3h2.27V15.32a40.54,40.54,0,0,0-4.32-.22c-4.1,0-7,2.51-7,7.1v4.23H22.66v6h4.53V45.31h6Z" transform="translate(1.51 1.51)"/></g></g></svg>