<svg xmlns="http://www.w3.org/2000/svg" xmlns:xlink="http://www.w3.org/1999/xlink" viewBox="0 0 63.44 63.44"><defs><style>.cls-1{fill:none;}.cls-2{clip-path:url(#clip-path);}.cls-3{fill:#1559b7;}</style><clipPath id="clip-path" transform="translate(1.51 1.51)"><circle id="SVGID" class="cls-1" cx="30.21" cy="30.21" r="30.21"/></clipPath></defs><g id="Layer_2" data-name="Layer 2"><g id="Layer_1-2" data-name="Layer 1"><g class="cls-2"><path class="cls-3" d="M30.21,1.51a28.7,28.7,0,0,1,28.7,28.7h3A31.72,31.72,0,0,0,30.21-1.51ZM1.51,30.21a28.7,28.7,0,0,1,28.7-28.7v-3A31.72,31.72,0,0,0-1.51,30.21Zm28.7,28.7a28.7,28.7,0,0,1-28.7-28.7h-3A31.72,31.72,0,0,0,30.21,61.93Zm28.7-28.7a28.7,28.7,0,0,1-28.7,28.7v3A31.72,31.72,0,0,0,61.93,30.21Z" transform="translate(1.51 1.51)"/></g><path class="cls-3" d="M38.14,20.39a1.88,1.88,0,0,0-1.89,1.89,1.89,1.89,0,0,0,1.89,1.89A1.91,1.91,0,0,0,40,22.28a1.89,1.89,0,0,0-1.89-1.89Zm-7.93,5.29a4.48,4.48,0,0,1,1.73.34,4.56,4.56,0,0,1,2.46,2.45,4.6,4.6,0,0,1,0,3.47,4.59,4.59,0,0,1-1,1.47,4.41,4.41,0,0,1-1.47,1,4.46,4.46,0,0,1-1.73.35,4.53,4.53,0,1,1,0-9.06m0-3a7.55,7.55,0,1,0,5.34,2.21A7.53,7.53,0,0,0,30.21,22.66Zm1.55-7.56c1.7,0,2.56,0,3.31,0h.29l1.08,0a11.06,11.06,0,0,1,3.66.71,7.28,7.28,0,0,1,2.68,1.74,7.4,7.4,0,0,1,1.74,2.67,11.15,11.15,0,0,1,.7,3.67c0,.4,0,.74.05,1.08v.29c0,.74,0,1.61,0,3.31v3.1c0,1.1,0,2.2,0,3.31v.29c0,.34,0,.67-.05,1.07a11.1,11.1,0,0,1-.7,3.67,7.68,7.68,0,0,1-4.42,4.42,11.09,11.09,0,0,1-3.66.7l-1.08.05h-.29c-.75,0-1.61,0-3.31,0h-3.1c-1.1,0-2.21,0-3.31,0h-.29L24,45.22a11.09,11.09,0,0,1-3.66-.7A7.68,7.68,0,0,1,15.9,40.1a10.85,10.85,0,0,1-.7-3.67l0-1.07v-.29c0-1.11,0-2.21,0-3.31v-3.1c0-1.11,0-2.21,0-3.31v-.29c0-.34,0-.68,0-1.08a11.13,11.13,0,0,1,.71-3.67,7.7,7.7,0,0,1,4.42-4.41A11,11,0,0,1,24,15.19l1.08,0h.29c1.1,0,2.2,0,3.31,0Z" transform="translate(1.51 1.51)"/></g></g></svg>