<svg xmlns="http://www.w3.org/2000/svg" xmlns:xlink="http://www.w3.org/1999/xlink" viewBox="0 0 63.44 63.44"><defs><style>.cls-1{fill:none;}.cls-2{clip-path:url(#clip-path);}.cls-3{fill:#1559b7;}</style><clipPath id="clip-path" transform="translate(1.51 1.51)"><circle id="SVGID" class="cls-1" cx="30.21" cy="30.21" r="30.21"/></clipPath></defs><g id="Layer_2" data-name="Layer 2"><g id="Layer_1-2" data-name="Layer 1"><g class="cls-2"><path class="cls-3" d="M30.21,1.51a28.7,28.7,0,0,1,28.7,28.7h3A31.72,31.72,0,0,0,30.21-1.51ZM1.51,30.21a28.7,28.7,0,0,1,28.7-28.7v-3A31.72,31.72,0,0,0-1.51,30.21Zm28.7,28.7a28.7,28.7,0,0,1-28.7-28.7h-3A31.72,31.72,0,0,0,30.21,61.93Zm28.7-28.7a28.7,28.7,0,0,1-28.7,28.7v3A31.72,31.72,0,0,0,61.93,30.21Z" transform="translate(1.51 1.51)"/></g><path class="cls-3" d="M30.78,24.89h-6V43.8h5.95V33.88c0-5.53,7.21-6,7.21,0V43.8h6v-12c0-9.32-10.66-9-13.17-4.4Zm-9.54,0h-6V43.8h6Zm-.09-5.25a3,3,0,0,1-.89,2.13,3,3,0,0,1-2.14.89A3,3,0,0,1,16,21.77a3,3,0,0,1-.89-2.14,3,3,0,0,1,5.16-2.13A3,3,0,0,1,21.15,19.64Z" transform="translate(1.51 1.51)"/></g></g></svg>