<svg xmlns="http://www.w3.org/2000/svg" xmlns:xlink="http://www.w3.org/1999/xlink" viewBox="0 0 63.44 63.44"><defs><style>.cls-1{fill:none;}.cls-2{clip-path:url(#clip-path);}.cls-3{fill:#1559b7;}</style><clipPath id="clip-path" transform="translate(1.51 1.51)"><circle id="SVGID" class="cls-1" cx="30.21" cy="30.21" r="30.21"/></clipPath></defs><g id="Layer_2" data-name="Layer 2"><g id="Layer_1-2" data-name="Layer 1"><g class="cls-2"><path class="cls-3" d="M30.21,1.51a28.7,28.7,0,0,1,28.7,28.7h3A31.72,31.72,0,0,0,30.21-1.51ZM1.51,30.21a28.7,28.7,0,0,1,28.7-28.7v-3A31.72,31.72,0,0,0-1.51,30.21Zm28.7,28.7a28.7,28.7,0,0,1-28.7-28.7h-3A31.72,31.72,0,0,0,30.21,61.93Zm28.7-28.7a28.7,28.7,0,0,1-28.7,28.7v3A31.72,31.72,0,0,0,61.93,30.21Z" transform="translate(1.51 1.51)"/></g><path class="cls-3" d="M36.63,40.78,20.77,19.64h3L39.65,40.78Zm-8.71-6.57,7.2,9.59H45.69L33.82,28,43.7,16.61h-4L32,25.5,25.3,16.61H14.73L26.07,31.74,15.59,43.8h4Z" transform="translate(1.51 1.51)"/></g></g></svg>