<svg xmlns="http://www.w3.org/2000/svg" viewBox="0 0 60.42 60.42"><defs><style>.cls-1{fill:#1559b7;}.cls-2{fill:#fff;}</style></defs><g id="Layer_2" data-name="Layer 2"><g id="Layer_1-2" data-name="Layer 1"><circle class="cls-1" cx="30.21" cy="30.21" r="30.21"/><path class="cls-2" d="M30.78,24.89h-6V43.8h5.95V33.88c0-5.53,7.21-6,7.21,0V43.8h6v-12c0-9.32-10.66-9-13.17-4.4Zm-9.54,0h-6V43.8h6Zm-.09-5.25a3,3,0,0,1-.89,2.13,3,3,0,0,1-2.14.89A3,3,0,0,1,16,21.77a3,3,0,0,1-.89-2.14,3,3,0,0,1,5.16-2.13A3,3,0,0,1,21.15,19.64Z"/></g></g></svg>